<svg width="123" height="123" viewBox="0 0 123 123" fill="none" xmlns="http://www.w3.org/2000/svg" class="hidden max-h-7 dark:block"><path d="M101.243 3.10938C74.5494 -0.482762 47.4958 -0.492205 20.7999 3.0813C16.237 3.6757 11.9953 5.75114 8.72581 8.98903C5.45634 12.2269 3.33983 16.4483 2.70117 21.0052C-0.891322 47.6987 -0.900408 74.7527 2.67415 101.449C3.26836 106.011 5.34367 110.253 8.58148 113.523C11.8193 116.792 16.0407 118.909 20.5975 119.547C33.9631 121.346 47.4341 122.249 60.9201 122.249C74.3381 122.249 87.7411 121.356 101.04 119.575C105.603 118.981 109.845 116.905 113.115 113.667C116.384 110.429 118.501 106.208 119.139 101.651C120.938 88.2854 121.841 74.8144 121.841 61.3283C121.841 47.9104 120.947 34.5074 119.167 21.2081C118.572 16.6452 116.497 12.4035 113.259 9.13401C110.021 5.86455 105.8 3.74804 101.243 3.10938ZM88.1368 66.6941L62.3218 98.8279C61.764 99.5286 61.0549 100.094 60.2476 100.482C59.4403 100.87 58.5557 101.07 57.6601 101.068C56.9443 101.067 56.234 100.943 55.5597 100.703C54.4257 100.328 53.4385 99.6063 52.7375 98.6393C52.0366 97.6724 51.6575 96.5095 51.6538 95.3152V70.1576H41.0653C39.3141 70.1877 37.5905 69.7179 36.0968 68.8033C34.6031 67.8887 33.4011 66.5672 32.6318 64.9937C31.9327 63.5426 31.662 61.9222 31.8517 60.3227C32.0413 58.7232 32.6833 57.211 33.7024 55.9636L59.5174 23.8298C60.3066 22.8493 61.3836 22.1386 62.5965 21.8026C63.8095 21.4667 65.0973 21.5198 66.2785 21.9545C67.4124 22.3295 68.3997 23.0515 69.1006 24.0184C69.8016 24.9854 70.1807 26.1483 70.1843 27.3426V52.5001H80.7739C82.5249 52.4701 84.2481 52.9399 85.7416 53.8543C87.2351 54.7687 88.437 56.0899 89.2064 57.663C89.9058 59.114 90.1767 60.7344 89.9872 62.3339C89.7977 63.9334 89.1558 65.4467 88.1368 66.6941Z" fill="#00D492"></path><path d="M80.7749 57.7978H67.5366C66.8341 57.7978 66.1604 57.5187 65.6637 57.022C65.167 56.5253 64.8879 55.8515 64.8879 55.1491V27.3427C64.8879 27.2781 64.8879 27.0816 64.5208 26.9518C64.3731 26.8876 64.209 26.8719 64.0519 26.9068C63.8947 26.9418 63.7527 27.0256 63.6462 27.1462L37.8317 59.28C37.4363 59.7476 37.1856 60.3203 37.1103 60.928C37.0351 61.5357 37.1385 62.1522 37.4079 62.7022C37.7492 63.3724 38.2747 63.9314 38.9226 64.3135C39.5706 64.6956 40.314 64.8849 41.0658 64.8593H54.3041C55.0066 64.8593 55.6803 65.1383 56.177 65.6351C56.6738 66.1318 56.9528 66.8055 56.9528 67.508V95.3143C56.9528 95.379 56.9528 95.5755 57.32 95.7053C57.4683 95.7666 57.6319 95.7806 57.7885 95.7453C57.9451 95.7101 58.0869 95.6272 58.1946 95.5082L84.009 63.3771C84.4045 62.9095 84.6551 62.3368 84.7304 61.7291C84.8057 61.1213 84.7023 60.5048 84.4328 59.9549C84.0915 59.2846 83.5661 58.7255 82.9181 58.3434C82.2702 57.9613 81.5267 57.772 80.7749 57.7978Z" fill="#00D492"></path></svg>